# xmcd
#
# Track frame offsets:
#	150
#	21783
#	41681
#	63058
#	81294
#	98520
#	112784
#	134207
#	155000
#	177144
#	193524
#	206205
#	230013
#
# Disc length: 3411 seconds
#
# Revision: 0
# Processed by: cddbd v1.4PL0 Copyright (c) Steve Scherf et al.
# Submitted via: EasyCDDAExtractor 4.6.0.1
#
DISCID=ac0d510d
DTITLE=Macy Gray - The ID
DYEAR=1900
DGENRE=
TTITLE0=Relating To A Psychopath
TTITLE1=Boo
TTITLE2=Sexual Revolution
TTITLE3=Hey Young World II feat Slick Rick
TTITLE4=Sweet Baby feat Erykah Badu
TTITLE5=Harry
TTITLE6=Give Me All Your Lovin Or I Will Kill You
TTITLE7=Don't Come Around feat Sunshine Anderson
TTITLE8=My Nutmeg Phantasy feat Angie Stone and Mos Def
TTITLE9=Freak Like Me
TTITLE10=Oblivion
TTITLE11=Forgiveness
TTITLE12=Blowin Up Your Speakers
EXTD=
EXTT0=
EXTT1=
EXTT2=
EXTT3=
EXTT4=
EXTT5=
EXTT6=
EXTT7=
EXTT8=
EXTT9=
EXTT10=
EXTT11=
EXTT12=
PLAYORDER=
